<mxfile host="app.diagrams.net" modified="2021-09-22T08:15:11.139Z" agent="5.0 (Windows NT 10.0; Win64; x64) AppleWebKit/537.36 (KHTML, like Gecko) Chrome/93.0.4577.82 Safari/537.36" etag="Ck_uspIXjJ1Rwshq9KZ1" version="15.0.3" type="github">
  <diagram name="Page-1" id="13e1069c-82ec-6db2-03f1-153e76fe0fe0">
    <mxGraphModel dx="782" dy="446" grid="1" gridSize="10" guides="1" tooltips="1" connect="1" arrows="1" fold="1" page="1" pageScale="1" pageWidth="1100" pageHeight="850" background="none" math="0" shadow="0">
      <root>
        <mxCell id="0" />
        <mxCell id="1" parent="0" />
        <mxCell id="7baba1c4bc27f4b0-2" value="Site application" style="shape=umlLifeline;perimeter=lifelinePerimeter;whiteSpace=wrap;html=1;container=1;collapsible=0;recursiveResize=0;outlineConnect=0;rounded=1;shadow=0;comic=0;labelBackgroundColor=none;strokeWidth=1;fontFamily=Verdana;fontSize=12;align=center;" parent="1" vertex="1">
          <mxGeometry x="305" y="80" width="100" height="580" as="geometry" />
        </mxCell>
        <mxCell id="7baba1c4bc27f4b0-3" value="Weshop authorization service" style="shape=umlLifeline;perimeter=lifelinePerimeter;whiteSpace=wrap;html=1;container=1;collapsible=0;recursiveResize=0;outlineConnect=0;rounded=1;shadow=0;comic=0;labelBackgroundColor=none;strokeWidth=1;fontFamily=Verdana;fontSize=12;align=center;" parent="1" vertex="1">
          <mxGeometry x="490" y="80" width="100" height="580" as="geometry" />
        </mxCell>
        <mxCell id="7baba1c4bc27f4b0-23" value="" style="html=1;verticalAlign=bottom;endArrow=block;labelBackgroundColor=none;fontFamily=Verdana;fontSize=12;align=right;strokeWidth=2;" parent="1" source="7baba1c4bc27f4b0-8" target="7baba1c4bc27f4b0-3" edge="1">
          <mxGeometry relative="1" as="geometry">
            <mxPoint x="165" y="320" as="sourcePoint" />
            <mxPoint x="585" y="440.0000000000001" as="targetPoint" />
            <Array as="points">
              <mxPoint x="390" y="320" />
            </Array>
          </mxGeometry>
        </mxCell>
        <mxCell id="7baba1c4bc27f4b0-11" value="" style="html=1;verticalAlign=bottom;endArrow=block;labelBackgroundColor=none;fontFamily=Verdana;fontSize=12;edgeStyle=elbowEdgeStyle;elbow=vertical;align=center;strokeWidth=2;" parent="1" source="7baba1c4bc27f4b0-8" target="7baba1c4bc27f4b0-2" edge="1">
          <mxGeometry relative="1" as="geometry">
            <mxPoint x="165" y="201" as="sourcePoint" />
            <mxPoint x="350" y="201.33000000000004" as="targetPoint" />
            <Array as="points">
              <mxPoint x="240" y="200" />
            </Array>
          </mxGeometry>
        </mxCell>
        <mxCell id="7baba1c4bc27f4b0-45" value="&lt;div style=&quot;font-family: &amp;#34;helvetica&amp;#34;&quot;&gt;The user copies&lt;/div&gt;&lt;div style=&quot;font-family: &amp;#34;helvetica&amp;#34;&quot;&gt;the coupon code&lt;/div&gt;&lt;div style=&quot;font-family: &amp;#34;helvetica&amp;#34;&quot;&gt;and clicks on the site for the first time.&lt;/div&gt;" style="shape=note;whiteSpace=wrap;html=1;size=14;verticalAlign=top;align=left;spacingTop=-6;rounded=0;shadow=0;comic=0;labelBackgroundColor=none;strokeWidth=1;fontFamily=Verdana;fontSize=12" parent="1" vertex="1">
          <mxGeometry x="30" y="160" width="100" height="75" as="geometry" />
        </mxCell>
        <mxCell id="8HmVJXFXAkHjLsoE3Vvm-15" value="" style="endArrow=classic;html=1;strokeWidth=2;" edge="1" parent="1" source="7baba1c4bc27f4b0-2" target="7baba1c4bc27f4b0-8">
          <mxGeometry width="50" height="50" relative="1" as="geometry">
            <mxPoint x="350.6700000000001" y="222.72000000000003" as="sourcePoint" />
            <mxPoint x="166.66999999999996" y="223.12" as="targetPoint" />
            <Array as="points">
              <mxPoint x="280" y="220" />
            </Array>
          </mxGeometry>
        </mxCell>
        <mxCell id="8HmVJXFXAkHjLsoE3Vvm-19" value="&lt;div&gt;&lt;font face=&quot;helvetica&quot;&gt;The user clicks for the second time, here may require the user to enter the weshop account password in the browser to log in and click to authorize&lt;/font&gt;&lt;br&gt;&lt;/div&gt;" style="shape=note;whiteSpace=wrap;html=1;size=14;verticalAlign=top;align=left;spacingTop=-6;rounded=0;shadow=0;comic=0;labelBackgroundColor=none;strokeWidth=1;fontFamily=Verdana;fontSize=12" vertex="1" parent="1">
          <mxGeometry x="560" y="280" width="130" height="110" as="geometry" />
        </mxCell>
        <mxCell id="8HmVJXFXAkHjLsoE3Vvm-20" value="" style="endArrow=classic;html=1;align=left;strokeWidth=2;" edge="1" parent="1" source="7baba1c4bc27f4b0-3" target="7baba1c4bc27f4b0-8">
          <mxGeometry width="50" height="50" relative="1" as="geometry">
            <mxPoint x="380" y="320" as="sourcePoint" />
            <mxPoint x="166" y="341.91999999999996" as="targetPoint" />
            <Array as="points">
              <mxPoint x="330" y="340" />
            </Array>
          </mxGeometry>
        </mxCell>
        <mxCell id="7baba1c4bc27f4b0-8" value="user browser" style="shape=umlLifeline;perimeter=lifelinePerimeter;whiteSpace=wrap;html=1;container=1;collapsible=0;recursiveResize=0;outlineConnect=0;rounded=1;shadow=0;comic=0;labelBackgroundColor=none;strokeWidth=1;fontFamily=Verdana;fontSize=12;align=center;" parent="1" vertex="1">
          <mxGeometry x="110" y="80" width="95" height="580" as="geometry" />
        </mxCell>
        <mxCell id="8HmVJXFXAkHjLsoE3Vvm-16" value="&lt;span style=&quot;font-size: 11px ; background-color: rgb(255 , 255 , 255)&quot;&gt;302 location:/authorize?callback=callback&lt;/span&gt;" style="text;html=1;strokeColor=none;fillColor=none;align=left;verticalAlign=middle;whiteSpace=wrap;rounded=0;" vertex="1" parent="7baba1c4bc27f4b0-8">
          <mxGeometry x="60" y="150" width="250" height="20" as="geometry" />
        </mxCell>
        <mxCell id="8HmVJXFXAkHjLsoE3Vvm-17" value="&lt;span style=&quot;font-family: &amp;#34;verdana&amp;#34; ; text-align: right&quot;&gt;Get: /Authorize&lt;/span&gt;" style="text;html=1;strokeColor=none;fillColor=none;align=center;verticalAlign=middle;whiteSpace=wrap;rounded=0;" vertex="1" parent="7baba1c4bc27f4b0-8">
          <mxGeometry x="60" y="220" width="110" height="20" as="geometry" />
        </mxCell>
        <mxCell id="8HmVJXFXAkHjLsoE3Vvm-18" value="&lt;span style=&quot;font-family: &amp;#34;verdana&amp;#34;&quot;&gt;Get: /LeadToAuthorize&lt;/span&gt;" style="text;html=1;strokeColor=none;fillColor=none;align=center;verticalAlign=middle;whiteSpace=wrap;rounded=0;" vertex="1" parent="7baba1c4bc27f4b0-8">
          <mxGeometry x="60" y="100" width="140" height="20" as="geometry" />
        </mxCell>
        <mxCell id="8HmVJXFXAkHjLsoE3Vvm-22" value="302 location:/callback?code=xxx" style="text;html=1;strokeColor=none;fillColor=none;align=right;verticalAlign=middle;whiteSpace=wrap;rounded=0;" vertex="1" parent="1">
          <mxGeometry x="320" y="340" width="220" height="20" as="geometry" />
        </mxCell>
        <mxCell id="8HmVJXFXAkHjLsoE3Vvm-23" value="" style="endArrow=classic;html=1;align=left;fontColor=#FFB366;strokeColor=#FFB570;strokeWidth=2;" edge="1" parent="1" source="7baba1c4bc27f4b0-8" target="7baba1c4bc27f4b0-2">
          <mxGeometry width="50" height="50" relative="1" as="geometry">
            <mxPoint x="160" y="470" as="sourcePoint" />
            <mxPoint x="210" y="420" as="targetPoint" />
            <Array as="points">
              <mxPoint x="260" y="400" />
            </Array>
          </mxGeometry>
        </mxCell>
        <mxCell id="8HmVJXFXAkHjLsoE3Vvm-24" value="&lt;div&gt;&lt;font face=&quot;helvetica&quot;&gt;After the process, the user has no perception on the browser side, and when it is finally completed, the user successfully logs in to the site and jumps to the site application&lt;/font&gt;&lt;br&gt;&lt;/div&gt;" style="shape=note;whiteSpace=wrap;html=1;size=14;verticalAlign=top;align=left;spacingTop=-6;rounded=0;shadow=0;comic=0;labelBackgroundColor=none;strokeWidth=1;fontFamily=Verdana;fontSize=12" vertex="1" parent="1">
          <mxGeometry x="30" y="390" width="115" height="140" as="geometry" />
        </mxCell>
        <mxCell id="8HmVJXFXAkHjLsoE3Vvm-25" value="GET: /callback?code=xxx" style="text;html=1;align=center;verticalAlign=middle;resizable=0;points=[];autosize=1;strokeColor=none;fontColor=#FFB366;" vertex="1" parent="1">
          <mxGeometry x="155" y="380" width="150" height="20" as="geometry" />
        </mxCell>
        <mxCell id="8HmVJXFXAkHjLsoE3Vvm-26" value="" style="endArrow=classic;html=1;align=left;fontColor=#FFB366;strokeColor=#FFB570;strokeWidth=2;" edge="1" parent="1">
          <mxGeometry width="50" height="50" relative="1" as="geometry">
            <mxPoint x="353" y="440" as="sourcePoint" />
            <mxPoint x="540" y="440" as="targetPoint" />
            <Array as="points">
              <mxPoint x="456" y="440" />
            </Array>
          </mxGeometry>
        </mxCell>
        <mxCell id="8HmVJXFXAkHjLsoE3Vvm-28" value="POST: /getToken?code=xxx" style="text;html=1;align=center;verticalAlign=middle;resizable=0;points=[];autosize=1;strokeColor=none;fontColor=#FFB366;" vertex="1" parent="1">
          <mxGeometry x="350" y="415" width="160" height="20" as="geometry" />
        </mxCell>
        <mxCell id="8HmVJXFXAkHjLsoE3Vvm-29" value="" style="endArrow=classic;html=1;fontColor=#FFB366;strokeColor=#FFB570;strokeWidth=2;align=left;" edge="1" parent="1" source="7baba1c4bc27f4b0-3" target="7baba1c4bc27f4b0-2">
          <mxGeometry width="50" height="50" relative="1" as="geometry">
            <mxPoint x="430" y="530" as="sourcePoint" />
            <mxPoint x="480" y="480" as="targetPoint" />
            <Array as="points">
              <mxPoint x="470" y="460" />
            </Array>
          </mxGeometry>
        </mxCell>
        <mxCell id="8HmVJXFXAkHjLsoE3Vvm-30" value="200 {token:yyyy}" style="text;html=1;align=center;verticalAlign=middle;resizable=0;points=[];autosize=1;strokeColor=none;fontColor=#FFB366;" vertex="1" parent="1">
          <mxGeometry x="440" y="460" width="100" height="20" as="geometry" />
        </mxCell>
        <mxCell id="8HmVJXFXAkHjLsoE3Vvm-31" value="" style="endArrow=classic;html=1;align=left;fontColor=#FFB366;strokeColor=#FFB570;strokeWidth=2;" edge="1" parent="1" source="7baba1c4bc27f4b0-2" target="7baba1c4bc27f4b0-3">
          <mxGeometry width="50" height="50" relative="1" as="geometry">
            <mxPoint x="360" y="520" as="sourcePoint" />
            <mxPoint x="537" y="520" as="targetPoint" />
            <Array as="points">
              <mxPoint x="453" y="520" />
            </Array>
          </mxGeometry>
        </mxCell>
        <mxCell id="8HmVJXFXAkHjLsoE3Vvm-32" value="POST: /getResource?token=" style="text;html=1;align=center;verticalAlign=middle;resizable=0;points=[];autosize=1;strokeColor=none;fontColor=#FFB366;" vertex="1" parent="1">
          <mxGeometry x="345" y="500" width="170" height="20" as="geometry" />
        </mxCell>
        <mxCell id="8HmVJXFXAkHjLsoE3Vvm-33" value="" style="endArrow=classic;html=1;fontColor=#FFB366;strokeColor=#FFB570;strokeWidth=2;align=left;" edge="1" parent="1">
          <mxGeometry width="50" height="50" relative="1" as="geometry">
            <mxPoint x="540" y="540" as="sourcePoint" />
            <mxPoint x="355" y="540" as="targetPoint" />
            <Array as="points">
              <mxPoint x="470.5" y="540" />
            </Array>
          </mxGeometry>
        </mxCell>
        <mxCell id="8HmVJXFXAkHjLsoE3Vvm-34" value="200 {username:tom,&lt;br&gt;eamil:happy@gmail.com}" style="text;html=1;align=right;verticalAlign=middle;resizable=0;points=[];autosize=1;strokeColor=none;fontColor=#FFB366;" vertex="1" parent="1">
          <mxGeometry x="390" y="540" width="150" height="30" as="geometry" />
        </mxCell>
        <mxCell id="8HmVJXFXAkHjLsoE3Vvm-36" value="" style="endArrow=classic;html=1;fontColor=#FFB366;strokeColor=#FFB570;strokeWidth=2;align=left;" edge="1" parent="1" source="7baba1c4bc27f4b0-2" target="7baba1c4bc27f4b0-8">
          <mxGeometry width="50" height="50" relative="1" as="geometry">
            <mxPoint x="360" y="520" as="sourcePoint" />
            <mxPoint x="410" y="470" as="targetPoint" />
            <Array as="points">
              <mxPoint x="260" y="600" />
            </Array>
          </mxGeometry>
        </mxCell>
        <mxCell id="8HmVJXFXAkHjLsoE3Vvm-37" value="Return&amp;nbsp; site app" style="text;html=1;align=center;verticalAlign=middle;resizable=0;points=[];autosize=1;strokeColor=none;fontColor=#FFB366;" vertex="1" parent="1">
          <mxGeometry x="180" y="580" width="100" height="20" as="geometry" />
        </mxCell>
      </root>
    </mxGraphModel>
  </diagram>
</mxfile>
